HIERARCHY
ROOT Hips
{
  OFFSET 340.57 87.5751 214.797
  CHANNELS 6 Xposition Yposition Zposition Zrotation Xrotation Yrotation
  JOINT RightUpLeg
  {
    OFFSET -9.35418 -1.54571 -0.019184
    CHANNELS 6 Xposition Yposition Zposition Zrotation Xrotation Yrotation
    JOINT RightLeg
    {
      OFFSET -0.0595554 -41.8927 0.0789417
      CHANNELS 6 Xposition Yposition Zposition Zrotation Xrotation Yrotation
      JOINT RightFoot
      {
        OFFSET -1.00159 -42.3965 -1.97064
        CHANNELS 6 Xposition Yposition Zposition Zrotation Xrotation Yrotation
        End Site
        {
          OFFSET 0 -7.69 17.5
        }
      }
    }
  }
  JOINT LeftUpLeg
  {
    OFFSET 9.33628 -1.64051 -0.0795185
    CHANNELS 6 Xposition Yposition Zposition Zrotation Xrotation Yrotation
    JOINT LeftLeg
    {
      OFFSET 0.124871 -41.8725 -0.08325
      CHANNELS 6 Xposition Yposition Zposition Zrotation Xrotation Yrotation
      JOINT LeftFoot
      {
        OFFSET 0.728222 -40.8097 2.1196
        CHANNELS 6 Xposition Yposition Zposition Zrotation Xrotation Yrotation
        End Site
        {
          OFFSET 0 -7.69 17.5
        }
      }
    }
  }
  JOINT Spine
  {
    OFFSET -0.00473719 14.2997 0.0629236
    CHANNELS 6 Xposition Yposition Zposition Zrotation Xrotation Yrotation
    JOINT Spine1
    {
      OFFSET 0.0169761 9.72347 0.0140793
      CHANNELS 6 Xposition Yposition Zposition Zrotation Xrotation Yrotation
      JOINT Spine2
      {
        OFFSET 0.0492782 10.1166 -0.00504451
        CHANNELS 6 Xposition Yposition Zposition Zrotation Xrotation Yrotation
        JOINT Spine3
        {
          OFFSET 0.0356489 9.71757 0.00502689
          CHANNELS 6 Xposition Yposition Zposition Zrotation Xrotation Yrotation
          JOINT Neck
          {
            OFFSET 0.139197 10.3854 0.0533347
            CHANNELS 6 Xposition Yposition Zposition Zrotation Xrotation Yrotation
            JOINT Head
            {
              OFFSET 0.148012 9.46768 -0.000545472
              CHANNELS 6 Xposition Yposition Zposition Zrotation Xrotation Yrotation
              End Site
              {
                OFFSET 0 15.95 0
              }
            }
          }
          JOINT RightShoulder
          {
            OFFSET -3.16785 6.93254 0.0309733
            CHANNELS 6 Xposition Yposition Zposition Zrotation Xrotation Yrotation
            JOINT RightArm
            {
              OFFSET -12.7681 0.0492996 0.0890957
              CHANNELS 6 Xposition Yposition Zposition Zrotation Xrotation Yrotation
              JOINT RightForeArm
              {
                OFFSET -26.4761 -0.090776 0.147076
                CHANNELS 6 Xposition Yposition Zposition Zrotation Xrotation Yrotation
                JOINT RightHand
                {
                  OFFSET -25.9655 0.0607057 -0.248467
                  CHANNELS 6 Xposition Yposition Zposition Zrotation Xrotation Yrotation
                  JOINT RightHandThumb1
                  {
                    OFFSET -2.48905 0.190105 3.12053
                    CHANNELS 6 Xposition Yposition Zposition Zrotation Xrotation Yrotation
                    JOINT RightHandThumb2
                    {
                      OFFSET -3.68274 0 0
                      CHANNELS 6 Xposition Yposition Zposition Zrotation Xrotation Yrotation
                      JOINT RightHandThumb3
                      {
                        OFFSET -2.55832 0 0
                        CHANNELS 6 Xposition Yposition Zposition Zrotation Xrotation Yrotation
                        End Site
                        {
                          OFFSET -2.194 0 0
                        }
                      }
                    }
                  }
                  JOINT RightInHandIndex
                  {
                    OFFSET -3.22368 0.508421 1.97842
                    CHANNELS 6 Xposition Yposition Zposition Zrotation Xrotation Yrotation
                    JOINT RightHandIndex1
                    {
                      OFFSET -5.21684 -0.091368 0.999158
                      CHANNELS 6 Xposition Yposition Zposition Zrotation Xrotation Yrotation
                      JOINT RightHandIndex2
                      {
                        OFFSET -3.61937 0 0
                        CHANNELS 6 Xposition Yposition Zposition Zrotation Xrotation Yrotation
                        JOINT RightHandIndex3
                        {
                          OFFSET -2.0521 0 0
                          CHANNELS 6 Xposition Yposition Zposition Zrotation Xrotation Yrotation
                          End Site
                          {
                            OFFSET -1.805 0 0
                          }
                        }
                      }
                    }
                  }
                  JOINT RightInHandMiddle
                  {
                    OFFSET -3.38211 0.517263 0.756737
                    CHANNELS 6 Xposition Yposition Zposition Zrotation Xrotation Yrotation
                    JOINT RightHandMiddle1
                    {
                      OFFSET -5.17411 -0.084 0.313895
                      CHANNELS 6 Xposition Yposition Zposition Zrotation Xrotation Yrotation
                      JOINT RightHandMiddle2
                      {
                        OFFSET -3.94947 0 0
                        CHANNELS 6 Xposition Yposition Zposition Zrotation Xrotation Yrotation
                        JOINT RightHandMiddle3
                        {
                          OFFSET -2.47579 0 0
                          CHANNELS 6 Xposition Yposition Zposition Zrotation Xrotation Yrotation
                          End Site
                          {
                            OFFSET -1.975 0 0
                          }
                        }
                      }
                    }
                  }
                  JOINT RightInHandRing
                  {
                    OFFSET -3.36516 0.537895 -0.128947
                    CHANNELS 6 Xposition Yposition Zposition Zrotation Xrotation Yrotation
                    JOINT RightHandRing1
                    {
                      OFFSET -4.63474 -0.022105 -0.478947
                      CHANNELS 6 Xposition Yposition Zposition Zrotation Xrotation Yrotation
                      JOINT RightHandRing2
                      {
                        OFFSET -3.44238 0 0
                        CHANNELS 6 Xposition Yposition Zposition Zrotation Xrotation Yrotation
                        JOINT RightHandRing3
                        {
                          OFFSET -2.3881 0 0
                          CHANNELS 6 Xposition Yposition Zposition Zrotation Xrotation Yrotation
                          End Site
                          {
                            OFFSET -1.857 0 0
                          }
                        }
                      }
                    }
                  }
                  JOINT RightInHandPinky
                  {
                    OFFSET -3.16105 0.469368 -1.20179
                    CHANNELS 6 Xposition Yposition Zposition Zrotation Xrotation Yrotation
                    JOINT RightHandPinky1
                    {
                      OFFSET -4.14105 -0.022105 -1.09053
                      CHANNELS 6 Xposition Yposition Zposition Zrotation Xrotation Yrotation
                      JOINT RightHandPinky2
                      {
                        OFFSET -2.75653 0 0
                        CHANNELS 6 Xposition Yposition Zposition Zrotation Xrotation Yrotation
                        JOINT RightHandPinky3
                        {
                          OFFSET -1.74189 0 0
                          CHANNELS 6 Xposition Yposition Zposition Zrotation Xrotation Yrotation
                          End Site
                          {
                            OFFSET -1.645 0 0
                          }
                        }
                      }
                    }
                  }
                }
              }
            }
          }
          JOINT LeftShoulder
          {
            OFFSET 3.20588 6.97332 0.0254387
            CHANNELS 6 Xposition Yposition Zposition Zrotation Xrotation Yrotation
            JOINT LeftArm
            {
              OFFSET 12.869 0.0341024 0.0247643
              CHANNELS 6 Xposition Yposition Zposition Zrotation Xrotation Yrotation
              JOINT LeftForeArm
              {
                OFFSET 26.4961 -0.048754 -0.0727933
                CHANNELS 6 Xposition Yposition Zposition Zrotation Xrotation Yrotation
                JOINT LeftHand
                {
                  OFFSET 26.0058 -0.0100885 -0.0649647
                  CHANNELS 6 Xposition Yposition Zposition Zrotation Xrotation Yrotation
                  JOINT LeftHandThumb1
                  {
                    OFFSET 2.48905 0.190105 3.12053
                    CHANNELS 6 Xposition Yposition Zposition Zrotation Xrotation Yrotation
                    JOINT LeftHandThumb2
                    {
                      OFFSET 3.68274 0 0
                      CHANNELS 6 Xposition Yposition Zposition Zrotation Xrotation Yrotation
                      JOINT LeftHandThumb3
                      {
                        OFFSET 2.55832 0 0
                        CHANNELS 6 Xposition Yposition Zposition Zrotation Xrotation Yrotation
                        End Site
                        {
                          OFFSET 2.194 0 0
                        }
                      }
                    }
                  }
                  JOINT LeftInHandIndex
                  {
                    OFFSET 3.22368 0.508421 1.97842
                    CHANNELS 6 Xposition Yposition Zposition Zrotation Xrotation Yrotation
                    JOINT LeftHandIndex1
                    {
                      OFFSET 5.21684 -0.091368 0.999158
                      CHANNELS 6 Xposition Yposition Zposition Zrotation Xrotation Yrotation
                      JOINT LeftHandIndex2
                      {
                        OFFSET 3.61937 0 0
                        CHANNELS 6 Xposition Yposition Zposition Zrotation Xrotation Yrotation
                        JOINT LeftHandIndex3
                        {
                          OFFSET 2.0521 0 0
                          CHANNELS 6 Xposition Yposition Zposition Zrotation Xrotation Yrotation
                          End Site
                          {
                            OFFSET 1.805 0 0
                          }
                        }
                      }
                    }
                  }
                  JOINT LeftInHandMiddle
                  {
                    OFFSET 3.38211 0.517263 0.756737
                    CHANNELS 6 Xposition Yposition Zposition Zrotation Xrotation Yrotation
                    JOINT LeftHandMiddle1
                    {
                      OFFSET 5.17411 -0.084 0.313895
                      CHANNELS 6 Xposition Yposition Zposition Zrotation Xrotation Yrotation
                      JOINT LeftHandMiddle2
                      {
                        OFFSET 3.94947 0 0
                        CHANNELS 6 Xposition Yposition Zposition Zrotation Xrotation Yrotation
                        JOINT LeftHandMiddle3
                        {
                          OFFSET 2.47579 0 0
                          CHANNELS 6 Xposition Yposition Zposition Zrotation Xrotation Yrotation
                          End Site
                          {
                            OFFSET 1.975 0 0
                          }
                        }
                      }
                    }
                  }
                  JOINT LeftInHandRing
                  {
                    OFFSET 3.36516 0.537895 -0.128947
                    CHANNELS 6 Xposition Yposition Zposition Zrotation Xrotation Yrotation
                    JOINT LeftHandRing1
                    {
                      OFFSET 4.63474 -0.022105 -0.478947
                      CHANNELS 6 Xposition Yposition Zposition Zrotation Xrotation Yrotation
                      JOINT LeftHandRing2
                      {
                        OFFSET 3.44238 0 0
                        CHANNELS 6 Xposition Yposition Zposition Zrotation Xrotation Yrotation
                        JOINT LeftHandRing3
                        {
                          OFFSET 2.3881 0 0
                          CHANNELS 6 Xposition Yposition Zposition Zrotation Xrotation Yrotation
                          End Site
                          {
                            OFFSET 1.857 0 0
                          }
                        }
                      }
                    }
                  }
                  JOINT LeftInHandPinky
                  {
                    OFFSET 3.16105 0.469368 -1.20179
                    CHANNELS 6 Xposition Yposition Zposition Zrotation Xrotation Yrotation
                    JOINT LeftHandPinky1
                    {
                      OFFSET 4.14105 -0.022105 -1.09053
                      CHANNELS 6 Xposition Yposition Zposition Zrotation Xrotation Yrotation
                      JOINT LeftHandPinky2
                      {
                        OFFSET 2.75653 0 0
                        CHANNELS 6 Xposition Yposition Zposition Zrotation Xrotation Yrotation
                        JOINT LeftHandPinky3
                        {
                          OFFSET 1.74189 0 0
                          CHANNELS 6 Xposition Yposition Zposition Zrotation Xrotation Yrotation
                          End Site
                          {
                            OFFSET 1.645 0 0
                          }
                        }
                      }
                    }
                  }
                }
              }
            }
          }
        }
      }
    }
  }
}
MOTION
Frames:	3
Frame Time:	0.00833333
340.57 87.5751 214.797 24.4618 12.1982 -67.8154 -9.35418 -1.54571 -0.019184 -25.9351 -49.1122 -27.4642 -0.0595554 -41.8927 0.0789417 -1.10395 22.1944 -9.60215 -1.00159 -42.3965 -1.97064 12.9968 8.99805 24.3752 9.33628 -1.64051 -0.0795185 22.633 -41.0403 9.99789 0.124871 -41.8725 -0.08325 2.54479 29.517 -6.05643 0.728222 -40.8097 2.1196 -17.3227 -13.0417 -15.6451 -0.00473719 14.2997 0.0629236 -9.37356 12.7208 17.527 0.0169761 9.72347 0.0140793 -1.98354 3.49784 4.13286 0.0492782 10.1166 -0.00504451 -3.29021 5.65413 6.65316 0.0356489 9.71757 0.00502689 0.014361 -0.204448 -0.70959 0.139197 10.3854 0.0533347 0.0145333 -0.204624 -0.711086 0.148012 9.46768 -0.000545472 -0.134464 -3.77415 -12.7183 -3.16785 6.93254 0.0309733 5.76455 -10.8601 15.6083 -12.7681 0.0492996 0.0890957 76.3514 -2.07823 47.5689 -26.4761 -0.090776 0.147076 41.7127 -51.9586 33.3733 -25.9655 0.0607057 -0.248467 15.3402 -18.0336 -17.8772 -2.48905 0.190105 3.12053 28.184 10.7294 19.1592 -3.68274 3.55271e-15 0 1.48325e-14 -2.88238e-15 -10 -2.55832 0 5.68434e-14 2.77519e-15 -7.15625e-15 -10 -3.22368 0.508421 1.97842 -3.18055e-15 -2.38542e-15 -1.59028e-15 -5.21684 -0.091368 0.999158 19.9818 0.871897 2.3964 -3.61937 -1.42109e-14 0 24 1.98785e-16 1.74931e-14 -2.0521 0 0 20 1.03368e-14 9.54166e-15 -3.38211 0.517263 0.756737 -3.18055e-15 -2.38542e-15 -1.59028e-15 -5.17411 -0.084 0.313895 20 3.97569e-15 6.36111e-15 -3.94947 -1.42109e-14 5.68434e-14 24 -5.96354e-16 -3.18055e-15 -2.47579 -1.42109e-14 -5.68434e-14 20 -2.38542e-15 -7.95139e-15 -3.36516 0.537895 -0.128947 -3.18055e-15 -2.38542e-15 -1.59028e-15 -4.63474 -0.022105 -0.478947 19.9748 -1.02565 -2.81938 -3.44238 -7.10543e-15 5.68434e-14 24 -1.98785e-15 -1.59028e-15 -2.3881 -1.42109e-14 -5.68434e-14 20 -4.77083e-15 -1.11319e-14 -3.16105 0.469368 -1.20179 -3.18055e-15 -2.38542e-15 -1.59028e-15 -4.14105 -0.022105 -1.09053 19.7815 -3.00948 -8.30515 -2.75653 0 2.84217e-14 24 -1.59028e-15 -9.54166e-15 -1.74189 2.84217e-14 0 20 -3.18055e-15 -3.18055e-15 3.20588 6.97332 0.0254387 11.4149 -12.2574 -28.0476 12.869 0.0341024 0.0247643 -26.0553 37.2895 -77.6952 26.4961 -0.048754 -0.0727933 8.0654 -60.7919 9.26141 26.0058 -0.0100885 -0.0649647 -23.398 -21.9288 9.52979 2.48905 0.190105 3.12053 -28.184 10.7294 -19.1592 3.68274 0 0 -1.68245e-15 9.54166e-15 10 2.55832 -2.84217e-14 -2.84217e-14 5.3376e-15 6.36111e-15 10 3.22368 0.508421 1.97842 -3.18055e-15 0 3.18055e-15 5.21684 -0.091368 0.999158 -19.9818 0.871897 -2.3964 3.61937 0 5.68434e-14 -24 3.18055e-15 3.18055e-15 2.0521 7.10543e-15 5.68434e-14 -20 -3.97569e-15 9.54166e-15 3.38211 0.517263 0.756737 -3.18055e-15 0 3.18055e-15 5.17411 -0.084 0.313895 -20 -3.18055e-15 -9.54166e-15 3.94947 2.84217e-14 5.68434e-14 -24 5.56597e-15 -0 2.47579 1.42109e-14 -2.84217e-14 -20 -2.78299e-15 9.54166e-15 3.36516 0.537895 -0.128947 -3.18055e-15 0 3.18055e-15 4.63474 -0.022105 -0.478947 -19.9748 -1.02565 2.81938 3.44238 0 -5.68434e-14 -24 -6.36111e-15 -0 2.3881 0 0 -20 -1.59028e-15 1.27222e-14 3.16105 0.469368 -1.20179 -3.18055e-15 0 3.18055e-15 4.14105 -0.022105 -1.09053 -19.7815 -3.00948 8.30515 2.75653 0 0 -24 7.15625e-15 -3.18055e-15 1.74189 -2.84217e-14 2.84217e-14 -20 7.95139e-16 1.90833e-14 
340.557 87.5739 214.711 24.4939 12.0553 -68.1011 -9.34633 -1.54602 -0.0110352 -25.6728 -49.2486 -26.9425 -0.0507151 -41.8918 0.0776881 -1.14047 22.147 -9.53238 -0.992256 -42.3782 -1.95398 13.0024 9.03616 24.262 9.34778 -1.64535 -0.0940231 22.7028 -40.9158 10.3531 0.136016 -41.8727 -0.100886 2.64121 29.5745 -6.29595 0.742494 -40.812 2.1538 -17.3158 -13.1327 -15.4916 -0.00610399 14.2997 0.0635174 -9.38394 12.6693 17.4754 0.017172 9.72356 0.0141748 -1.98859 3.48406 4.11875 0.0502694 10.1166 -0.00587599 -3.29817 5.63247 6.63006 0.0357136 9.71757 0.00474446 0.00643685 -0.204175 -0.698932 0.146735 10.3853 0.0531974 0.00659195 -0.204442 -0.700329 0.156667 9.46761 -0.00607715 -0.27207 -3.76565 -12.5228 -3.16702 6.93178 0.0310228 5.77662 -10.7063 15.5748 -12.7787 0.0287723 0.0712218 76.6609 -2.2452 47.2369 -26.4902 -0.0836062 0.0978562 43.109 -51.8372 35.3045 -25.9408 0.16343 -0.388181 16.0146 -18.8082 -16.5406 -2.48905 0.190105 3.12053 28.184 10.7294 19.1592 -3.68274 -1.06581e-14 5.68434e-14 2.09074e-14 -9.64106e-15 -10 -2.55832 -7.10543e-15 5.68434e-14 -5.55783e-14 -3.8266e-15 -10 -3.22368 0.508421 1.97842 3.18055e-15 -2.38542e-15 1.59028e-15 -5.21684 -0.091368 0.999158 19.9818 0.871897 2.3964 -3.61937 -1.42109e-14 5.68434e-14 24 -1.41137e-14 -4.85035e-14 -2.0521 0 -5.68434e-14 20 -7.95139e-16 -4.21423e-14 -3.38211 0.517263 0.756737 3.18055e-15 -2.38542e-15 1.59028e-15 -5.17411 -0.084 0.313895 20 -7.15625e-15 -1.74931e-14 -3.94947 7.10543e-15 0 24 -3.57812e-15 -6.83819e-14 -2.47579 1.42109e-14 0 20 -7.15625e-15 -3.33958e-14 -3.36516 0.537895 -0.128947 3.18055e-15 -2.38542e-15 1.59028e-15 -4.63474 -0.022105 -0.478947 19.9748 -1.02565 -2.81938 -3.44238 7.10543e-15 0 24 -1.33186e-14 -4.77083e-14 -2.3881 1.42109e-14 -5.68434e-14 20 -3.97569e-15 -4.77083e-14 -3.16105 0.469368 -1.20179 3.18055e-15 -2.38542e-15 1.59028e-15 -4.14105 -0.022105 -1.09053 19.7815 -3.00948 -8.30515 -2.75653 0 2.84217e-14 24 -7.55382e-15 -4.77083e-14 -1.74189 0 5.68434e-14 20 -4.77083e-15 -4.13472e-14 3.17632 7.00412 0.0625841 11.2578 -12.0344 -27.684 12.8656 0.0635008 0.075843 -25.3452 37.5709 -78.4502 26.4959 -0.0480817 -0.0755239 8.4096 -59.6067 9.43455 25.9949 -0.056923 0.0276339 -23.0933 -20.592 10.1503 2.48905 0.190105 3.12053 -28.184 10.7294 -19.1592 3.68274 0 2.84217e-14 1.01144e-14 1.59028e-14 10 2.55832 0 -2.84217e-14 -1.12164e-15 6.36111e-15 10 3.22368 0.508421 1.97842 1.76556e-31 -3.18055e-15 3.18055e-15 5.21684 -0.091368 0.999158 -19.9818 0.871897 -2.3964 3.61937 0 5.68434e-14 -24 2.38542e-15 1.27222e-14 2.0521 2.84217e-14 5.68434e-14 -20 0 1.90833e-14 3.38211 0.517263 0.756737 1.76556e-31 -3.18055e-15 3.18055e-15 5.17411 -0.084 0.313895 -20 -4.77083e-15 3.18055e-15 3.94947 0 -2.84217e-14 -24 4.77083e-15 6.36111e-15 2.47579 -2.84217e-14 2.84217e-14 -20 -3.97569e-16 1.27222e-14 3.36516 0.537895 -0.128947 1.76556e-31 -3.18055e-15 3.18055e-15 4.63474 -0.022105 -0.478947 -19.9748 -1.02565 2.81938 3.44238 0 0 -24 -3.18055e-15 6.36111e-15 2.3881 -1.42109e-14 -2.84217e-14 -20 7.95139e-16 1.59028e-14 3.16105 0.469368 -1.20179 1.76556e-31 -3.18055e-15 3.18055e-15 4.14105 -0.022105 -1.09053 -19.7815 -3.00948 8.30515 2.75653 -2.84217e-14 8.52651e-14 -24 -1.19271e-15 1.27222e-14 1.74189 1.42109e-14 -5.68434e-14 -20 -5.56597e-15 3.18055e-14 
340.544 87.5728 214.622 24.5173 11.9129 -68.4007 -9.34228 -1.54636 -0.00501896 -25.3961 -49.3865 -26.4152 -0.0482219 -41.8908 0.0753472 -1.16844 22.1242 -9.47118 -0.972504 -42.3581 -1.9278 13.0088 9.02141 24.1654 9.35288 -1.64087 -0.0956649 22.7919 -40.7387 10.5365 0.141064 -41.8728 -0.0961838 2.61137 29.6068 -6.29684 0.763446 -40.8208 2.17898 -17.3129 -13.2233 -15.3572 -0.0071934 14.2997 0.0638797 -9.38903 12.6232 17.4123 0.0173669 9.72365 0.0142467 -1.99235 3.47087 4.10176 0.0513481 10.1166 -0.00661132 -3.30404 5.61144 6.60263 0.0357752 9.71757 0.00446408 -0.00158884 -0.203828 -0.687829 0.155773 10.3852 0.0501204 -0.00144761 -0.204186 -0.689138 0.167243 9.46754 -0.0149039 -0.413088 -3.7739 -12.319 -3.16617 6.93099 0.0310702 5.76053 -10.5558 15.548 -12.8114 -0.0146384 0.0269661 76.8166 -2.12901 47.0641 -26.4959 -0.0616822 0.0287347 44.4898 -52.1267 37.3645 -25.9324 0.165903 -0.378914 16.104 -18.845 -16.1487 -2.48905 0.190105 3.12053 28.184 10.7294 19.1592 -3.68274 3.55271e-15 5.68434e-14 -2.27312e-14 3.8763e-15 -10 -2.55832 -1.06581e-14 5.68434e-14 -3.14013e-14 5.07522e-15 -10 -3.22368 0.508421 1.97842 -3.18055e-15 -3.18055e-15 -4.77083e-15 -5.21684 -0.091368 0.999158 19.9818 0.871897 2.3964 -3.61937 7.10543e-15 0 24 -5.56597e-15 6.36111e-15 -2.0521 1.42109e-14 0 20 4.37326e-15 5.56597e-14 -3.38211 0.517263 0.756737 -3.18055e-15 -3.18055e-15 -4.77083e-15 -5.17411 -0.084 0.313895 20 -8.34896e-15 -1.27222e-14 -3.94947 1.42109e-14 -5.68434e-14 24 7.95139e-15 -0 -2.47579 1.42109e-14 -5.68434e-14 20 1.27222e-14 5.64548e-14 -3.36516 0.537895 -0.128947 -3.18055e-15 -3.18055e-15 -4.77083e-15 -4.63474 -0.022105 -0.478947 19.9748 -1.02565 -2.81938 -3.44238 -7.10543e-15 0 24 -1.78906e-15 -0 -2.3881 -1.42109e-14 0 20 7.15625e-15 3.49861e-14 -3.16105 0.469368 -1.20179 -3.18055e-15 -3.18055e-15 -4.77083e-15 -4.14105 -0.022105 -1.09053 19.7815 -3.00948 -8.30515 -2.75653 0 2.84217e-14 24 3.97569e-16 7.95139e-15 -1.74189 -2.84217e-14 5.68434e-14 20 -3.97569e-15 3.33958e-14 3.21646 6.96537 0.0146807 11.4312 -12.1616 -28.1275 12.8648 0.0295206 0.0115161 -25.7457 37.5859 -78.1418 26.4957 -0.0473445 -0.0784136 8.68165 -58.4171 9.55712 25.9958 -0.0475397 0.0204478 -23.1727 -20.6927 10.1472 2.48905 0.190105 3.12053 -28.184 10.7294 -19.1592 3.68274 2.84217e-14 0 -3.22962e-15 0 10 2.55832 -2.84217e-14 8.52651e-14 -9.68886e-15 0 10 3.22368 0.508421 1.97842 -3.18055e-15 0 3.18055e-15 5.21684 -0.091368 0.999158 -19.9818 0.871897 -2.3964 3.61937 2.84217e-14 5.68434e-14 -24 -3.18055e-15 -9.54166e-15 2.0521 0 -2.84217e-14 -20 1.98785e-15 3.18055e-15 3.38211 0.517263 0.756737 -3.18055e-15 0 3.18055e-15 5.17411 -0.084 0.313895 -20 -3.18055e-15 -0 3.94947 0 0 -24 7.15625e-15 3.18055e-15 2.47579 0 2.84217e-14 -20 3.57812e-15 -1.27222e-14 3.36516 0.537895 -0.128947 -3.18055e-15 0 3.18055e-15 4.63474 -0.022105 -0.478947 -19.9748 -1.02565 2.81938 3.44238 -2.84217e-14 5.68434e-14 -24 3.18055e-15 -0 2.3881 0 0 -20 -1.19271e-15 -9.54166e-15 3.16105 0.469368 -1.20179 -3.18055e-15 0 3.18055e-15 4.14105 -0.022105 -1.09053 -19.7815 -3.00948 8.30515 2.75653 -2.84217e-14 2.84217e-14 -24 3.18055e-15 3.18055e-15 1.74189 0 -5.68434e-14 -20 -7.95139e-16 -1.27222e-14 
